<svg xmlns="http://www.w3.org/2000/svg" version="1.1" xmlns:xlink="http://www.w3.org/1999/xlink" xmlns:svgjs="http://svgjs.dev/svgjs" width="1500" height="1500" viewBox="0 0 1500 1500"><rect width="1500" height="1500" fill="#ffffff"></rect><g transform="matrix(0.6666666666666666,0,0,0.6666666666666666,249.39468998640734,601.2418530640697)"><svg viewBox="0 0 396 118" data-background-color="#ffffff" preserveAspectRatio="xMidYMid meet" height="446" width="1500" xmlns="http://www.w3.org/2000/svg" xmlns:xlink="http://www.w3.org/1999/xlink"><g id="tight-bounds" transform="matrix(1,0,0,1,0.2399599999999964,0.03644993312650513)"><svg viewBox="0 0 395.52 117.92710013374699" height="117.92710013374699" width="395.52"><g><svg viewBox="0 0 395.52 117.92710013374699" height="117.92710013374699" width="395.52"><g><svg viewBox="0 0 395.52 117.92710013374699" height="117.92710013374699" width="395.52"><g id="textblocktransform"><svg viewBox="0 0 395.52 117.92710013374699" height="117.92710013374699" width="395.52" id="textblock"><g><svg viewBox="0 0 395.52 117.92710013374699" height="117.92710013374699" width="395.52"><path d="M394.594 25.293C392.735 13.052 387.435 9.649 387.435 9.649 371.165-2.959 350.86-0.241 332.619 1.57 300.414 1.644 268.339 4.337 236.208 5.781 168.767 6.002 100.749 2.378 33.643 11.314 27.339 14.056-6.54 11.853 1.121 26.86 3.129 33.103 10.456 40.031 10.232 45.76 11.236 46.763 12.631 44.462 13.226 45.907 15.309 49.799 18.711 47.963 21.501 50.264 17.614 56.409 20.403 61.526 23.062 66.887 18.377 68.283 12.371 67.622 9.675 72.249 9.396 75.603 7.89 74.966 6.235 74.819 5.026 74.721 2.59 75.089 2.999 76.141 4.394 79.74-1.594 81.821 2.162 85.346-0.422 89.166 3.948 92.471 3.353 96.608 3.278 97.44 3.687 98.15 4.338 98.346 7.22 99.399 3.018 101.455 3.464 103.683 33.029 118.911 65.104 108.384 95.394 115.385 103.259 110.489 97.346 117.124 100.489 116.095 102.943 114.896 104.728 119.865 107.499 117.05 107.927 116.242 107.276 114.333 108.8 114.7 109.6 114.896 110.307 114.847 110.418 113.721 110.586 112.031 109.117 113.084 108.726 112.203 112.947 107.747 111.906 118.348 115.866 117.907 115.68 116.609 114.528 114.749 116.889 114.994 119.232 113.133 119.306 111.591 121.389 115.777 121.463 116.683 121.835 117.319 122.43 117.76 128.938 113.206 135.409 119.376 142.233 117.319 146.417 115.067 150.433 118.543 154.672 117.687 156.16 117.001 157.666 115.777 159.098 117.833 176.632 118.274 195.319 116.438 211.943 117.907 256.364 115.165 303.836 119.033 350.674 115.41 361.719 114.014 373.192 112.031 383.958 110.44 383.958 110.44 392.679 106.082 392.679 86.497S394.538 69.36 394.817 53.765C395.096 38.17 396.398 37.534 394.538 25.293Z" opacity="1" fill="#000000" data-fill-palette-color="tertiary"></path><g transform="matrix(1,0,0,1,55.76832,26.230666666666668)"><svg width="283.98335999999995" viewBox="0.95 -38.25 167.42328322080002 38.6" height="65.46576680041366" data-palette-color="url(#093da561-599c-4e16-a4f3-d4c24c724821)"></svg></g></svg></g></svg></g></svg></g><g></g></svg></g><defs></defs><mask id="bc9941e1-3fe6-4fc8-abef-19898e785d3b"><g id="SvgjsG1929"><svg viewBox="0 0 395.52 117.92710013374699" height="117.92710013374699" width="395.52"><g><svg viewBox="0 0 395.52 117.92710013374699" height="117.92710013374699" width="395.52"><g><svg viewBox="0 0 395.52 117.92710013374699" height="117.92710013374699" width="395.52"><g id="SvgjsG1928"><svg viewBox="0 0 395.52 117.92710013374699" height="117.92710013374699" width="395.52" id="SvgjsSvg1927"><g><svg viewBox="0 0 395.52 117.92710013374699" height="117.92710013374699" width="395.52"><path d="M394.594 25.293C392.735 13.052 387.435 9.649 387.435 9.649 371.165-2.959 350.86-0.241 332.619 1.57 300.414 1.644 268.339 4.337 236.208 5.781 168.767 6.002 100.749 2.378 33.643 11.314 27.339 14.056-6.54 11.853 1.121 26.86 3.129 33.103 10.456 40.031 10.232 45.76 11.236 46.763 12.631 44.462 13.226 45.907 15.309 49.799 18.711 47.963 21.501 50.264 17.614 56.409 20.403 61.526 23.062 66.887 18.377 68.283 12.371 67.622 9.675 72.249 9.396 75.603 7.89 74.966 6.235 74.819 5.026 74.721 2.59 75.089 2.999 76.141 4.394 79.74-1.594 81.821 2.162 85.346-0.422 89.166 3.948 92.471 3.353 96.608 3.278 97.44 3.687 98.15 4.338 98.346 7.22 99.399 3.018 101.455 3.464 103.683 33.029 118.911 65.104 108.384 95.394 115.385 103.259 110.489 97.346 117.124 100.489 116.095 102.943 114.896 104.728 119.865 107.499 117.05 107.927 116.242 107.276 114.333 108.8 114.7 109.6 114.896 110.307 114.847 110.418 113.721 110.586 112.031 109.117 113.084 108.726 112.203 112.947 107.747 111.906 118.348 115.866 117.907 115.68 116.609 114.528 114.749 116.889 114.994 119.232 113.133 119.306 111.591 121.389 115.777 121.463 116.683 121.835 117.319 122.43 117.76 128.938 113.206 135.409 119.376 142.233 117.319 146.417 115.067 150.433 118.543 154.672 117.687 156.16 117.001 157.666 115.777 159.098 117.833 176.632 118.274 195.319 116.438 211.943 117.907 256.364 115.165 303.836 119.033 350.674 115.41 361.719 114.014 373.192 112.031 383.958 110.44 383.958 110.44 392.679 106.082 392.679 86.497S394.538 69.36 394.817 53.765C395.096 38.17 396.398 37.534 394.538 25.293Z" opacity="1" fill="black"></path><g transform="matrix(1,0,0,1,55.76832,26.230666666666668)"><svg width="283.98335999999995" viewBox="0.95 -38.25 167.42328322080002 38.6" height="65.46576680041366" data-palette-color="url(#093da561-599c-4e16-a4f3-d4c24c724821)"><path d="M15-25.4L15-25.4Q14.3-22.7 13.28-19.8 12.25-16.9 11.15-14.3L11.15-14.3Q11.1-14.2 10.9-13.83 10.7-13.45 10.6-13.5L10.6-13.5Q10.45-13.5 10.48-13.93 10.5-14.35 10.55-14.5L10.55-14.5Q10.6-15.1 10.75-16 10.9-16.9 11.08-17.85 11.25-18.8 11.48-19.7 11.7-20.6 11.9-21.25L11.9-21.25Q12-21.45 12.2-22.25 12.4-23.05 12.63-24.18 12.85-25.3 13.1-26.65 13.35-28 13.55-29.3L13.55-29.3 12.95-29.45Q12.7-27.7 12.23-25.88 11.75-24.05 11.18-22.23 10.6-20.4 10.05-18.53 9.5-16.65 9.05-14.8L9.05-14.8Q8.65-13.05 8.45-11.15 8.25-9.25 8.3-7.33 8.35-5.4 8.75-3.58 9.15-1.75 9.95-0.2L9.95-0.2Q10.1 0.15 10.05 0.15L10.05 0.15Q9.95 0.15 9.9 0.1L9.9 0.1 9.8 0Q8.4-1.65 7.73-3.58 7.05-5.5 6.88-7.55 6.7-9.6 6.95-11.7 7.2-13.8 7.65-15.8L7.65-15.8Q8.5-19.5 9.65-22.93 10.8-26.35 11.6-29.65L11.6-29.65Q8.6-30.15 5.98-30.58 3.35-31 1.1-30.55L1.1-30.55Q0.95-30.55 0.95-30.6L0.95-30.6Q0.95-30.7 1.03-30.73 1.1-30.75 1.15-30.8L1.15-30.8Q2.85-31.8 4.78-31.9 6.7-32 8.78-31.73 10.85-31.45 13.03-31.03 15.2-30.6 17.4-30.55L17.4-30.55Q18.75-30.5 20.23-30.78 21.7-31.05 23.08-31.63 24.45-32.2 25.58-33.15 26.7-34.1 27.4-35.4L27.4-35.4Q27.5-35.65 27.6-35.65L27.6-35.65 27.6-35.5 27.6-35.4Q27.05-33.5 25.9-32.27 24.75-31.05 23.28-30.3 21.8-29.55 20.13-29.28 18.45-29 16.85-29.05L16.85-29.05Q17.1-27.5 16.88-25.45 16.65-23.4 16.2-21.3 15.75-19.2 15.25-17.32 14.75-15.45 14.45-14.3L14.45-14.3Q13.85-11.9 13.05-9.4 12.25-6.9 11.6-5L11.6-5Q11.5-4.75 11.38-4.55 11.25-4.35 11.15-4.4L11.15-4.4Q11.05-4.45 11.08-4.67 11.1-4.9 11.1-5.15L11.1-5.15Q11.25-8.9 12.2-12.65 13.15-16.4 14.25-20.2L14.25-20.2Q14.85-22.3 15.43-24.45 16-26.6 16.25-29.05L16.25-29.05Q16-29.1 15.83-29.1 15.65-29.1 15.4-29.1L15.4-29.1Q15.4-28.1 15.33-27.15 15.25-26.2 15-25.4ZM16.35-36.05L16.35-36.05Q18.3-35.8 20.3-35.65 22.3-35.5 23.75-35.5L23.75-35.5Q24.25-35.5 24.25-35.35L24.25-35.35Q24.25-35.15 23.75-35L23.75-35Q21.2-34 18.38-34.1 15.55-34.2 12.65-34.65L12.65-34.65Q10.9-34.9 9.05-35.15 7.2-35.4 5.05-35.15L5.05-35.15Q4.85-35.1 4.85-35.2L4.85-35.2Q4.85-35.3 4.95-35.35 5.05-35.4 5.15-35.5L5.15-35.5Q6.1-36.2 7.6-36.43 9.1-36.65 10.73-36.63 12.35-36.6 13.85-36.4 15.35-36.2 16.35-36.05ZM8.85-34.5L8.85-34.5Q10.95-34.2 13.13-33.75 15.3-33.3 17.35-32.75L17.35-32.75Q17.45-32.65 17.78-32.58 18.1-32.5 18.1-32.35L18.1-32.35Q18.1-32.25 17.8-32.2 17.5-32.15 17.35-32.05L17.35-32.05Q16.9-31.95 16.23-31.95 15.55-31.95 14.83-31.98 14.1-32 13.4-32.05 12.7-32.1 12.2-32.2L12.2-32.2Q11.85-32.25 10.48-32.4 9.1-32.55 7.45-32.6 5.8-32.65 4.28-32.58 2.75-32.5 2.1-32.15L2.1-32.15Q1.9-32.05 1.85-32.05L1.85-32.05 1.8-32.05Q1.8-32.25 2-32.45L2-32.45Q2.5-33.1 3.38-33.55 4.25-34 5.2-34.25 6.15-34.5 7.13-34.55 8.1-34.6 8.85-34.5ZM10.5-3.55L10.5-3.55Q10.65-2.7 10.88-1.85 11.1-1 11.45-0.2L11.45-0.2Q11.65 0.2 11.5 0.2L11.5 0.2Q11.4 0.2 11.2 0.1L11.2 0.1Q11.1 0.05 11.05-0.05L11.05-0.05Q10.4-0.8 10.03-1.45 9.65-2.1 9.4-3.55L9.4-3.55Q9.3-4.1 9.28-4.95 9.25-5.8 9.3-6.6 9.35-7.4 9.45-7.95 9.55-8.5 9.75-8.5L9.75-8.5Q9.8-8.5 9.88-8.25 9.95-8 10-7.68 10.05-7.35 10.1-7.03 10.15-6.7 10.15-6.6L10.15-6.6Q10.25-5.75 10.33-5 10.4-4.25 10.5-3.55ZM25-34.85L25-34.85Q26.1-35.8 26.85-36.9L26.85-36.9Q26.95-37.1 27.05-37.1L27.05-37.1Q27.1-37.1 27.1-36.75L27.1-36.75Q27.1-36.55 27.05-36.4L27.05-36.4Q26.85-35.55 26.6-35.05 26.35-34.55 25.4-33.85L25.4-33.85Q25.05-33.55 24.45-33.27 23.85-33 23.3-32.8 22.75-32.6 22.33-32.58 21.9-32.55 21.85-32.75L21.85-32.75Q21.85-32.8 22-32.93 22.15-33.05 22.38-33.2 22.6-33.35 22.8-33.48 23-33.6 23.1-33.65L23.1-33.65Q23.6-33.9 24.08-34.2 24.55-34.5 25-34.85ZM35.5-20.4L35.5-20.4Q35.9-19.9 36.12-19.15 36.35-18.4 36.3-17.53 36.25-16.65 35.9-15.7 35.55-14.75 34.8-13.85L34.8-13.85Q33.35-12.15 31.62-11.23 29.9-10.3 28.5-10.3L28.5-10.3Q27.65-10.3 28.5-10.6L28.5-10.6Q28.95-10.75 29.57-11.08 30.2-11.4 30.9-11.88 31.6-12.35 32.32-13 33.05-13.65 33.65-14.5L33.65-14.5Q34.65-15.9 34.82-17.23 35-18.55 34.3-19.25L34.3-19.25Q33.7-19.85 32.9-19.93 32.1-20 30.5-19.05L30.5-19.05Q29.05-18.2 27.9-16.95 26.75-15.7 25.75-14.3L25.75-14.3Q25.2-13.6 25.02-13.6 24.85-13.6 25.15-14.5L25.15-14.5Q25.75-16.25 26.82-17.75 27.9-19.25 29.4-20.3L29.4-20.3Q30.5-21.05 31.42-21.35 32.35-21.65 33.12-21.6 33.9-21.55 34.5-21.23 35.1-20.9 35.5-20.4ZM38.2-16.9L38.2-16.9Q38-15.7 37.57-14.88 37.15-14.05 36.62-13.48 36.1-12.9 35.57-12.55 35.05-12.2 34.65-11.9L34.65-11.9Q34.45-11.75 34.35-11.85 34.25-11.95 34.5-12.2L34.5-12.2Q35.4-12.95 36.32-14.23 37.25-15.5 37.3-17.05L37.3-17.05Q37.3-19.7 36-21.1L36-21.1Q34.7-22.5 32.75-22.33 30.8-22.15 28.7-20.8L28.7-20.8Q27.35-19.95 26.32-18.82 25.3-17.7 24.55-16.43 23.8-15.15 23.32-13.8 22.85-12.45 22.65-11.1L22.65-11.1Q22.45-9.8 22.27-8.3 22.1-6.8 22.27-5.35 22.45-3.9 23.2-2.58 23.95-1.25 25.55-0.3L25.55-0.3Q25.8-0.15 26.07-0.1 26.35-0.05 26.35 0L26.35 0Q26.35 0.1 26.1 0.13 25.85 0.15 25.55 0.05L25.55 0.05Q24.3-0.2 23.42-0.98 22.55-1.75 22-2.75 21.45-3.75 21.15-4.85 20.85-5.95 20.8-6.85L20.8-6.85Q20.5-10.8 21.9-14.65L21.9-14.65Q22.2-15.45 22.67-16.45 23.15-17.45 23.85-18.48 24.55-19.5 25.5-20.48 26.45-21.45 27.65-22.2L27.65-22.2Q28.8-22.9 30.05-23.25 31.3-23.6 32.55-23.58 33.8-23.55 34.9-23.13 36-22.7 36.85-21.85L36.85-21.85Q37.6-21.05 38.02-19.8 38.45-18.55 38.2-16.9ZM33.65-18.7L33.65-18.7Q34.25-18 33.8-16.53 33.35-15.05 31.7-13.55L31.7-13.55Q30.8-12.7 29.95-12.18 29.1-11.65 27.8-11.25L27.8-11.25Q27.25-9.35 27.1-7.5 26.95-5.65 27.2-4.5L27.2-4.5Q27.25-4.05 27.52-3.63 27.8-3.2 28.32-2.98 28.85-2.75 29.7-2.8 30.55-2.85 31.8-3.35L31.8-3.35Q32.15-3.5 32.22-3.43 32.3-3.35 31.9-3.1L31.9-3.1Q31-2.4 30-2.13 29-1.85 28.12-1.95 27.25-2.05 26.62-2.55 26-3.05 25.8-3.9L25.8-3.9Q25.4-5.65 25.45-7.55 25.5-9.45 26.02-11.3 26.55-13.15 27.52-14.78 28.5-16.4 29.95-17.55L29.95-17.55Q32.65-19.7 33.65-18.7ZM33.15-2.75L33.15-2.75Q32.8-2.25 32.27-1.78 31.75-1.3 31.07-0.93 30.4-0.55 29.67-0.3 28.95-0.05 28.2-0.05L28.2-0.05Q26.9-0.05 25.77-0.63 24.65-1.2 24.05-2.95L24.05-2.95Q23.95-3.15 23.95-3.33 23.95-3.5 24.05-3.5L24.05-3.5Q24.25-3.6 24.45-3.38 24.65-3.15 24.85-2.9L24.85-2.9Q25.4-2.25 26.27-1.75 27.15-1.25 27.95-1.25L27.95-1.25Q29.45-1.25 30.55-1.7 31.65-2.15 32.65-2.9L32.65-2.9Q32.9-3.05 33.22-3.2 33.55-3.35 33.15-2.75ZM32.45-17.35L32.45-17.35Q32.25-17.75 31-16.7L31-16.7Q29.85-15.8 29.17-14.63 28.5-13.45 28-12.05L28-12.05Q28.95-12.5 29.75-13.08 30.55-13.65 31.25-14.2L31.25-14.2Q32-14.85 32.35-15.9 32.7-16.95 32.45-17.35ZM44.8-10.5L44.8-10.5Q45-11.75 45.47-13.03 45.95-14.3 46.6-15.38 47.25-16.45 48.05-17.18 48.85-17.9 49.75-18.15L49.75-18.15Q50.9-18.4 51.47-18.25 52.05-18.1 52.15-17.8L52.15-17.8Q52.3-17.35 52.15-16.9 52-16.45 51.72-16.1 51.45-15.75 51.12-15.48 50.8-15.2 50.6-15.15L50.6-15.15Q50.35-15.05 50.42-14.9 50.5-14.75 50.9-14.85L50.9-14.85Q51.35-14.9 51.8-15.2 52.25-15.5 52.62-15.95 53-16.4 53.2-16.93 53.4-17.45 53.35-18L53.35-18Q53.25-18.55 52.82-18.95 52.4-19.35 51.8-19.55 51.2-19.75 50.45-19.75 49.7-19.75 49.05-19.5L49.05-19.5Q47.75-19 46.77-18.03 45.8-17.05 45.07-15.78 44.35-14.5 43.9-13.03 43.45-11.55 43.15-10.05L43.15-10.05Q42.75-8.2 42.9-6.43 43.05-4.65 44.05-3.65L44.05-3.65Q44.55-3.15 45.35-2.95 46.15-2.75 47.05-2.78 47.95-2.8 48.87-3.1 49.8-3.4 50.6-3.9L50.6-3.9Q50.8-4 50.92-4.1 51.05-4.2 50.95-4.25L50.95-4.25Q50.9-4.3 50.55-4.2L50.55-4.2Q48.1-3.6 46.75-3.7 45.4-3.8 44.82-4.6 44.25-5.4 44.32-6.88 44.4-8.35 44.8-10.5ZM45.4-0.2L45.4-0.2Q43.8-0.3 42.35-1.23 40.9-2.15 40.35-3.55L40.35-3.55Q39.8-5 39.65-6.33 39.5-7.65 39.6-8.9L39.6-8.9Q39.8-11.5 40.62-14.13 41.45-16.75 43.2-18.85L43.2-18.85Q44.3-20.15 45.4-21.03 46.5-21.9 48.3-22.4L48.3-22.4Q49.2-22.65 50.25-22.7 51.3-22.75 52.32-22.48 53.35-22.2 54.25-21.55 55.15-20.9 55.84-19.8L55.84-19.8Q56-19.3 56.15-19.3L56.15-19.3Q56.3-19.45 56.15-19.85L56.15-19.85Q55.84-21.45 54.52-22.4 53.2-23.35 51.42-23.6 49.65-23.85 47.75-23.43 45.85-23 44.4-21.8L44.4-21.8Q42.45-20.25 41.12-18.23 39.8-16.2 39.05-13.95 38.3-11.7 38.15-9.3 38-6.9 38.5-4.6L38.5-4.6Q38.8-3.1 39.52-2.18 40.25-1.25 41.2-0.73 42.15-0.2 43.25-0.05 44.35 0.1 45.45 0.05L45.45 0.05Q45.75 0.05 45.82 0 45.9-0.05 45.9-0.1L45.9-0.1Q45.9-0.2 45.4-0.2ZM41.5-12.25L41.5-12.25Q41.5-12.2 41.47-12 41.45-11.8 41.42-11.6 41.4-11.4 41.4-11.23 41.4-11.05 41.5-11.05L41.5-11.05Q41.6-11.05 41.82-11.55 42.05-12.05 42.05-12.1L42.05-12.1Q43.35-15.1 45.15-17.4L45.15-17.4Q45.3-17.55 45.75-18.07 46.2-18.6 46.95-19.15 47.7-19.7 48.75-20.1 49.8-20.5 51.1-20.35L51.1-20.35Q52.45-20.2 53.3-19.35 54.15-18.5 53.9-17.35L53.9-17.35Q53.7-16.25 53.12-15.5 52.55-14.75 52-14.5L52-14.5Q51.6-14.35 51.77-14.3 51.95-14.25 52.05-14.25L52.05-14.25Q52.65-14.3 53.32-14.73 54-15.15 54.5-15.83 55-16.5 55.2-17.35 55.4-18.2 55.05-19.2L55.05-19.2Q54.65-20.25 53.9-20.88 53.15-21.5 52.25-21.78 51.35-22.05 50.42-22.05 49.5-22.05 48.85-21.9L48.85-21.9Q46.95-21.4 45.65-20.45 44.35-19.5 43.52-18.23 42.7-16.95 42.25-15.43 41.8-13.9 41.5-12.25ZM51.6-3.2L51.6-3.2Q51.8-3.5 51.77-3.6 51.75-3.7 51.65-3.68 51.55-3.65 51.37-3.53 51.2-3.4 51.1-3.35L51.1-3.35Q50.1-2.65 48.87-2.23 47.65-1.8 46.15-1.8L46.15-1.8Q45.4-1.8 44.37-2.33 43.35-2.85 42.8-3.4L42.8-3.4Q42.6-3.65 42.37-3.88 42.15-4.1 42-4.05L42-4.05Q41.8-3.85 42-3.5L42-3.5Q42.75-1.75 43.9-1.25 45.05-0.75 46.35-0.75L46.35-0.75Q47.1-0.75 47.87-0.95 48.65-1.15 49.37-1.48 50.1-1.8 50.67-2.25 51.25-2.7 51.6-3.2ZM64.74-26.35L64.74-26.35Q63.89-23.4 62.82-20.3 61.74-17.2 60.59-14.45L60.59-14.45Q60.54-14.3 60.32-13.9 60.09-13.5 59.94-13.55L59.94-13.55Q59.84-13.55 59.82-14.03 59.79-14.5 59.84-14.75L59.84-14.75Q59.94-15.4 60.14-16.35 60.34-17.3 60.57-18.3 60.79-19.3 61.02-20.25 61.24-21.2 61.49-21.9L61.49-21.9Q61.59-22.2 61.84-23.2 62.09-24.2 62.39-25.6 62.69-27 63.02-28.6 63.34-30.2 63.57-31.7 63.79-33.2 63.89-34.45 63.99-35.7 63.84-36.35L63.84-36.35Q63.69-36.85 63.84-36.85L63.84-36.85Q63.94-36.85 64.02-36.73 64.09-36.6 64.19-36.5L64.19-36.5Q64.69-35.6 64.97-34.3 65.24-33 65.29-31.6 65.34-30.2 65.19-28.8 65.04-27.4 64.74-26.35ZM62.74-37.9L62.74-37.9Q63.39-35.35 63.07-32.55 62.74-29.75 61.94-26.85 61.14-23.95 60.14-20.98 59.14-18 58.44-15L58.44-15Q57.99-13.1 57.72-11.08 57.44-9.05 57.44-7.08 57.44-5.1 57.77-3.28 58.09-1.45 58.89 0L58.89 0Q58.99 0.2 58.97 0.3 58.94 0.4 58.64 0L58.64 0Q57.34-1.5 56.72-3.4 56.09-5.3 55.99-7.4 55.89-9.5 56.19-11.75 56.49-14 57.04-16.15L57.04-16.15Q57.79-19.15 58.72-22.05 59.64-24.95 60.47-27.7 61.29-30.45 61.84-33.02 62.39-35.6 62.39-38L62.39-38Q62.39-38.25 62.44-38.25L62.44-38.25Q62.64-38.25 62.74-37.9ZM71.84 0L71.84 0Q69.99-0.85 68.89-2.65 67.79-4.45 67.54-6.8L67.54-6.8Q67.29-9.1 67.54-10.63 67.79-12.15 68.14-13.65L68.14-13.65Q68.19-13.85 68.34-14.33 68.49-14.8 68.57-15.3 68.64-15.8 68.57-16.18 68.49-16.55 68.14-16.65L68.14-16.65Q67.44-16.8 66.54-16.03 65.64-15.25 64.82-14.1 63.99-12.95 63.32-11.73 62.64-10.5 62.44-9.8L62.44-9.8Q61.99-8.35 61.49-7.05 60.99-5.75 60.59-4.45L60.59-4.45Q60.44-3.9 60.34-3.95L60.34-3.95Q60.24-3.95 60.22-4.15 60.19-4.35 60.19-4.6L60.19-4.6Q60.19-6.6 60.49-8.63 60.79-10.65 61.32-12.65 61.84-14.65 62.49-16.65 63.14-18.65 63.74-20.7L63.74-20.7Q64.54-23.25 65.27-25.9 65.99-28.55 66.24-31.6L66.24-31.6Q66.24-31.85 66.24-31.88 66.24-31.9 66.29-31.9L66.29-31.9Q66.44-31.9 66.54-31.5L66.54-31.5Q66.79-30.85 66.77-29.68 66.74-28.5 66.57-27.1 66.39-25.7 66.07-24.25 65.74-22.8 65.39-21.65L65.39-21.65Q66.34-22.65 67.64-23.2 68.94-23.75 70.74-23.5L70.74-23.5Q72.79-23.2 73.89-22.03 74.99-20.85 75.39-19.2 75.79-17.55 75.62-15.68 75.44-13.8 74.99-12.05L74.99-12.05Q74.59-10.7 74.24-9.68 73.89-8.65 73.54-7.8 73.19-6.95 72.94-6.2 72.69-5.45 72.54-4.6L72.54-4.6Q72.44-4.05 72.34-4.05L72.34-4.05Q72.24-4.05 72.17-4.25 72.09-4.45 72.04-4.65L72.04-4.65Q71.74-5.75 72.02-7.35 72.29-8.95 72.74-10.73 73.19-12.5 73.57-14.33 73.94-16.15 73.87-17.7 73.79-19.25 73.04-20.43 72.29-21.6 70.49-22.05L70.49-22.05Q69.74-22.25 68.87-22.18 67.99-22.1 67.22-21.78 66.44-21.45 65.84-20.85 65.24-20.25 65.04-19.45L65.04-19.45Q65.99-20.45 67.49-21.1 68.99-21.75 70.39-21.3L70.39-21.3Q71.69-20.9 72.24-19.85 72.79-18.8 72.89-18L72.89-18Q73.09-16.25 72.67-14.83 72.24-13.4 71.69-12.1L71.69-12.1Q71.59-11.95 71.39-11.63 71.19-11.3 71.09-11.35L71.09-11.35Q70.99-11.35 70.99-11.75 70.99-12.15 71.04-12.35L71.04-12.35Q71.19-12.85 71.29-13.93 71.39-15 71.37-16.15 71.34-17.3 71.07-18.3 70.79-19.3 70.19-19.65L70.19-19.65Q69.49-20.05 68.49-19.88 67.49-19.7 66.34-18.65L66.34-18.65Q65.34-17.75 64.64-16.57 63.94-15.4 63.44-13.5L63.44-13.5Q63.74-14.05 64.39-15.05 65.04-16.05 65.87-16.95 66.69-17.85 67.62-18.38 68.54-18.9 69.39-18.5L69.39-18.5Q69.94-18.2 70.12-17.48 70.29-16.75 70.22-15.85 70.14-14.95 69.94-14.1 69.74-13.25 69.59-12.75L69.59-12.75Q69.04-11.25 68.84-9.47 68.64-7.7 68.87-6 69.09-4.3 69.84-2.8 70.59-1.3 72.04-0.25L72.04-0.25Q72.49 0 72.22 0 71.94 0 71.84 0ZM73.14-0.4L73.14-0.4Q72.44-0.8 71.82-1.25 71.19-1.7 70.59-3L70.59-3Q70.34-3.5 70.22-4.35 70.09-5.2 70.07-5.98 70.04-6.75 70.14-7.28 70.24-7.8 70.39-7.75L70.39-7.75Q70.49-7.75 70.59-7.53 70.69-7.3 70.74-7 70.79-6.7 70.84-6.43 70.89-6.15 70.89-6.05L70.89-6.05Q71.09-4.95 71.24-4.42 71.39-3.9 71.64-3.3L71.64-3.3Q72.04-2.5 72.44-1.85 72.84-1.2 73.44-0.65L73.44-0.65Q73.69-0.45 73.57-0.35 73.44-0.25 73.14-0.4ZM60.49 0L60.49 0Q60.54 0 60.42 0.05 60.29 0.1 59.94 0L59.94 0Q59.54-0.2 59.12-0.75 58.69-1.3 58.44-2.9L58.44-2.9Q58.34-3.55 58.34-4.48 58.34-5.4 58.42-6.23 58.49-7.05 58.64-7.65 58.79-8.25 58.99-8.2L58.99-8.2Q59.04-8.2 59.09-7.9 59.14-7.6 59.19-7.23 59.24-6.85 59.24-6.48 59.24-6.1 59.24-5.95L59.24-5.95Q59.29-4.85 59.37-4.33 59.44-3.8 59.59-2.9L59.59-2.9Q59.74-1.95 59.94-1.18 60.14-0.4 60.49 0ZM112.79-32.2L112.79-32.2Q112.74-31.6 112.52-30.55 112.29-29.5 112.02-28.5 111.74-27.5 111.47-26.78 111.19-26.05 110.99-26.15L110.99-26.15Q110.94-26.2 110.94-26.45 110.94-26.7 110.97-27.03 110.99-27.35 111.02-27.65 111.04-27.95 111.09-28.1L111.09-28.1Q111.14-28.45 111.24-29.05 111.34-29.65 111.42-30.28 111.49-30.9 111.57-31.48 111.64-32.05 111.69-32.45L111.69-32.45Q111.79-33.4 111.79-34.25 111.79-35.1 111.69-36.05L111.69-36.05Q111.69-36.15 111.72-36.3 111.74-36.45 111.84-36.45L111.84-36.45Q112.14-36.45 112.24-36.05L112.24-36.05Q112.49-35.35 112.69-34.52 112.89-33.7 112.79-32.2ZM113.34-35.7L113.34-35.7Q114.09-33.7 114.22-31.48 114.34-29.25 114.04-27 113.74-24.75 113.12-22.58 112.49-20.4 111.69-18.5L111.69-18.5Q110.64-16 109.49-13.58 108.34-11.15 107.24-8.83 106.14-6.5 105.22-4.3 104.29-2.1 103.74 0L103.74 0Q103.69 0.15 103.54 0.23 103.39 0.3 103.39 0L103.39 0Q103.29-2.4 104.02-4.85 104.74-7.3 105.87-9.78 106.99-12.25 108.27-14.75 109.54-17.25 110.59-19.85L110.59-19.85Q111.24-21.45 111.84-23.45 112.44-25.45 112.84-27.55 113.24-29.65 113.34-31.75 113.44-33.85 113.14-35.6L113.14-35.6Q113.04-36.1 113.19-35.95L113.19-35.95 113.24-35.9Q113.29-35.85 113.29-35.8 113.29-35.75 113.34-35.7ZM96.89-30.7L96.89-30.7Q96.84-30.1 96.67-29.28 96.49-28.45 96.29-27.73 96.09-27 95.87-26.5 95.64-26 95.44-26.1L95.44-26.1Q95.39-26.1 95.39-26.35 95.39-26.6 95.42-26.93 95.44-27.25 95.47-27.55 95.49-27.85 95.54-28L95.54-28Q95.84-29.45 95.89-31.05L95.89-31.05Q95.99-31.95 95.97-32.73 95.94-33.5 95.79-34.45L95.79-34.45Q95.79-34.55 95.72-34.88 95.64-35.2 95.79-35.2L95.79-35.2Q95.89-35.2 96.09-34.9L96.09-34.9 96.29-34.6Q96.49-34.15 96.64-33.75 96.79-33.35 96.87-32.95 96.94-32.55 96.94-32 96.94-31.45 96.89-30.7ZM109.44-21.45L109.44-21.45Q109.59-21.35 109.49-20.95 109.39-20.55 109.39-20.4L109.39-20.4Q109.19-19.8 108.92-18.98 108.64-18.15 108.32-17.28 107.99-16.4 107.67-15.6 107.34-14.8 107.04-14.25L107.04-14.25Q106.89-13.95 106.52-13.08 106.14-12.2 105.69-10.98 105.24-9.75 104.74-8.33 104.24-6.9 103.84-5.55 103.44-4.2 103.14-3.08 102.84-1.95 102.84-1.3L102.84-1.3Q102.84-1.05 102.74-0.95L102.74-0.95Q102.69-0.9 102.64-0.95L102.64-0.95Q102.59-0.95 102.39-1.15L102.39-1.15Q102.14-1.5 101.69-2.02 101.24-2.55 100.89-3.1L100.89-3.1Q100.59-3.6 100.29-4.42 99.99-5.25 99.74-6.08 99.49-6.9 99.39-7.5 99.29-8.1 99.44-8.2L99.44-8.2Q99.49-8.2 99.64-7.98 99.79-7.75 99.94-7.45 100.09-7.15 100.22-6.88 100.34-6.6 100.39-6.5L100.39-6.5Q100.74-5.85 101.02-5.23 101.29-4.6 101.54-3.95L101.54-3.95Q101.79-3.3 102.09-2.83 102.39-2.35 102.44-2.4L102.44-2.4Q102.49-2.4 102.49-2.68 102.49-2.95 102.47-3.3 102.44-3.65 102.42-3.98 102.39-4.3 102.39-4.45L102.39-4.45Q102.29-6.35 102.62-7.9 102.94-9.45 103.49-10.7L103.49-10.7Q104.59-13.25 106.02-15.88 107.44-18.5 108.84-20.75L108.84-20.75Q108.94-20.85 109.17-21.15 109.39-21.45 109.44-21.45ZM102.44 0L102.44 0Q100.64-0.9 99.37-2.53 98.09-4.15 97.24-6.03 96.39-7.9 95.89-9.85 95.39-11.8 95.19-13.45L95.19-13.45Q95.09-14.2 95.04-14.93 94.99-15.65 94.99-15.9L94.99-15.9Q94.09-13.8 93.09-11.7 92.09-9.6 91.19-7.58 90.29-5.55 89.54-3.63 88.79-1.7 88.34 0L88.34 0Q88.29 0.2 88.14 0.35L88.14 0.35Q87.99 0.35 87.99 0L87.99 0Q87.94-2.4 88.64-4.8 89.34-7.2 90.42-9.68 91.49-12.15 92.74-14.68 93.99-17.2 95.04-19.8L95.04-19.8Q95.69-21.4 96.22-23.18 96.74-24.95 97.09-26.78 97.44-28.6 97.49-30.48 97.54-32.35 97.24-34.1L97.24-34.1Q97.19-34.35 97.14-34.43 97.09-34.5 97.19-34.5L97.19-34.5Q97.34-34.5 97.44-34.25L97.44-34.25Q97.94-32.9 98.17-31.58 98.39-30.25 98.49-28.9L98.49-28.9Q99.09-27.8 99.49-26.13 99.89-24.45 100.22-22.65 100.54-20.85 100.77-19.1 100.99-17.35 101.24-16.05L101.24-16.05Q101.49-14.9 101.62-13.65 101.74-12.4 101.84-11.25L101.84-11.25Q102.19-12.65 102.72-14.1 103.24-15.55 103.79-16.93 104.34-18.3 104.84-19.5 105.34-20.7 105.74-21.6L105.74-21.6Q106.19-22.7 106.79-24.05 107.39-25.4 108.02-26.7 108.64-28 109.27-29.18 109.89-30.35 110.39-31.15L110.39-31.15Q110.64-31.5 110.82-31.73 110.99-31.95 111.09-31.9L111.09-31.9Q111.19-31.8 111.12-31.58 111.04-31.35 110.94-31.1L110.94-31.1Q110.44-29.3 109.74-27.33 109.04-25.35 108.24-23.35 107.44-21.35 106.62-19.4 105.79-17.45 104.99-15.7L104.99-15.7Q104.14-13.75 103.19-11.75 102.24-9.75 101.84-7.35L101.84-7.35Q101.74-6.8 101.62-6.68 101.49-6.55 101.24-7.4L101.24-7.4Q99.99-12.1 99.44-16.82 98.89-21.55 98.19-26.35L98.19-26.35Q98.04-24.9 97.94-23.9 97.84-22.9 97.94-21.5L97.94-21.5Q98.04-19.7 98.19-17.93 98.34-16.15 98.39-14.6L98.39-14.6Q98.39-14.45 98.37-13.95 98.34-13.45 98.19-13.45L98.19-13.45Q98.14-13.4 98.09-13.53 98.04-13.65 97.97-13.85 97.89-14.05 97.82-14.23 97.74-14.4 97.74-14.5L97.74-14.5Q97.49-15.5 97.19-16.95 96.89-18.4 96.64-19.8L96.64-19.8Q96.24-18.55 96.14-17.28 96.04-16 96.34-14.2L96.34-14.2Q96.69-12.3 97.24-10.33 97.79-8.35 98.57-6.5 99.34-4.65 100.34-3 101.34-1.35 102.59-0.15L102.59-0.15Q102.74-0.05 102.69 0.03 102.64 0.1 102.44 0ZM95.19-30.4L95.19-30.4Q95.29-30.3 95.19-30.05 95.09-29.8 95.04-29.6L95.04-29.6Q94.69-27.8 94.07-26.03 93.44-24.25 92.69-22.53 91.94-20.8 91.12-19.07 90.29-17.35 89.49-15.6L89.49-15.6Q88.64-13.7 87.77-11.7 86.89-9.7 86.44-7.25L86.44-7.25Q86.34-6.75 86.24-6.6 86.14-6.45 85.89-7.35L85.89-7.35Q84.94-10.75 84.42-14.33 83.89-17.9 83.49-21.6L83.49-21.6Q83.24-24.2 82.79-26.93 82.34-29.65 81.49-32.55L81.49-32.55Q81.44-32.85 81.49-32.9L81.49-32.9Q81.54-32.95 81.64-32.83 81.74-32.7 81.84-32.6L81.84-32.6Q82.44-31.9 82.94-30.63 83.44-29.35 83.84-27.83 84.24-26.3 84.54-24.6 84.84-22.9 85.09-21.3 85.34-19.7 85.52-18.3 85.69-16.9 85.89-15.95L85.89-15.95Q86.09-14.8 86.22-13.58 86.34-12.35 86.44-11.15L86.44-11.15Q86.79-12.55 87.32-13.98 87.84-15.4 88.42-16.75 88.99-18.1 89.52-19.3 90.04-20.5 90.39-21.35L90.39-21.35Q91.34-23.65 92.47-25.9 93.59-28.15 94.64-29.75L94.64-29.75Q94.79-30 94.94-30.23 95.09-30.45 95.19-30.4ZM82.99-14.5L82.99-14.5Q83.04-14.35 82.99-13.85 82.94-13.35 82.84-13.35L82.84-13.35Q82.74-13.3 82.64-13.78 82.54-14.25 82.44-14.45L82.44-14.45Q82.29-15.1 82.07-16.05 81.84-17 81.62-18 81.39-19 81.22-19.95 81.04-20.9 80.99-21.6L80.99-21.6Q80.94-21.95 80.82-22.98 80.69-24 80.47-25.43 80.24-26.85 79.94-28.45 79.64-30.05 79.32-31.55 78.99-33.05 78.67-34.23 78.34-35.4 77.99-35.95L77.99-35.95Q77.69-36.35 77.84-36.45L77.84-36.45Q77.94-36.55 78.09-36.4 78.24-36.25 78.34-36.15L78.34-36.15Q79.04-35.55 79.67-34.45 80.29-33.35 80.82-32.08 81.34-30.8 81.69-29.5 82.04-28.2 82.19-27.15L82.19-27.15Q82.59-24.15 82.77-20.78 82.94-17.4 82.99-14.5ZM93.94-21.35L93.94-21.35Q94.09-21.3 93.99-20.9 93.89-20.5 93.84-20.35L93.84-20.35Q93.64-19.75 93.37-18.93 93.09-18.1 92.77-17.23 92.44-16.35 92.12-15.55 91.79-14.75 91.49-14.2L91.49-14.2Q91.29-13.8 90.72-12.2 90.14-10.6 89.49-8.58 88.84-6.55 88.27-4.53 87.69-2.5 87.54-1.25L87.54-1.25Q87.49-0.9 87.39-0.9L87.39-0.9Q87.24-0.85 86.99-1.1L86.99-1.1Q86.74-1.4 86.29-1.93 85.84-2.45 85.54-3L85.54-3Q85.29-3.5 84.97-4.35 84.64-5.2 84.39-6.03 84.14-6.85 84.04-7.48 83.94-8.1 84.09-8.15L84.09-8.15Q84.14-8.15 84.27-7.93 84.39-7.7 84.54-7.38 84.69-7.05 84.82-6.75 84.94-6.45 85.04-6.35L85.04-6.35Q85.34-5.7 85.59-5.13 85.84-4.55 86.09-3.9L86.09-3.9Q86.34-3.2 86.67-2.73 86.99-2.25 87.04-2.35L87.04-2.35Q87.04-2.35 87.04-2.63 87.04-2.9 86.99-3.23 86.94-3.55 86.92-3.9 86.89-4.25 86.89-4.4L86.89-4.4Q86.89-6.3 87.22-7.83 87.54-9.35 88.04-10.6L88.04-10.6Q89.09-13.15 90.52-15.78 91.94-18.4 93.29-20.7L93.29-20.7Q93.39-20.8 93.62-21.08 93.84-21.35 93.94-21.35ZM79.49-14.25L79.49-14.25Q78.99-17.25 78.74-20.35 78.49-23.45 78.24-26.4 77.99-29.35 77.57-32.05 77.14-34.75 76.34-37L76.34-37Q76.29-37.1 76.27-37.18 76.24-37.25 76.34-37.35L76.34-37.35Q76.39-37.4 76.49-37.25 76.59-37.1 76.64-37L76.64-37Q77.99-34.9 78.67-32.18 79.34-29.45 79.69-26.43 80.04-23.4 80.27-20.25 80.49-17.1 80.99-14.1L80.99-14.1Q81.29-12.2 81.87-10.25 82.44-8.3 83.24-6.48 84.04-4.65 85.04-3 86.04-1.35 87.24-0.1L87.24-0.1Q87.29-0.05 87.24 0.03 87.19 0.1 86.99 0L86.99 0Q85.34-1.05 84.09-2.58 82.84-4.1 81.94-5.98 81.04-7.85 80.44-9.95 79.84-12.05 79.49-14.25ZM131.74-17.6L131.74-17.6Q131.34-15.6 130.39-13.6 129.44-11.6 128.59-9.85L128.59-9.85Q128.54-9.75 128.36-9.5 128.19-9.25 128.09-9.25L128.09-9.25Q127.94-9.3 127.94-9.58 127.94-9.85 127.94-9.95L127.94-9.95Q127.99-10.4 128.11-11.03 128.24-11.65 128.34-12.33 128.44-13 128.56-13.63 128.69-14.25 128.84-14.75L128.84-14.75Q129.29-16.45 129.59-17.68 129.89-18.9 130.04-19.9 130.19-20.9 130.21-21.8 130.24-22.7 130.09-23.75L130.09-23.75Q130.04-24.15 130.14-24.25L130.14-24.25Q130.24-24.3 130.39-24.15 130.54-24 130.64-23.85L130.64-23.85Q131.49-22.5 131.79-20.88 132.09-19.25 131.74-17.6ZM132.74-21.25L132.94-20.95Q133.59-20 133.59-18.45 133.59-16.9 133.29-15.28 132.99-13.65 132.54-12.15 132.09-10.65 131.89-9.75L131.89-9.75Q131.49-8 130.79-6.25 130.09-4.5 129.59-3.15L129.59-3.15Q129.54-3 129.44-2.83 129.34-2.65 129.24-2.65L129.24-2.65Q129.14-2.65 129.14-2.85 129.14-3.05 129.14-3.2L129.14-3.2Q128.99-5.95 129.74-8.58 130.49-11.2 131.34-13.9L131.34-13.9Q131.84-15.55 132.29-17.28 132.74-19 132.69-21.05L132.69-21.05Q132.69-21.25 132.74-21.25L132.74-21.25ZM128.24-21.8L128.24-21.8Q125.19-20.55 123.06-18.23 120.94-15.9 119.79-13L119.79-13Q119.29-11.7 119.04-10.68 118.79-9.65 118.64-8.45L118.64-8.45Q118.59-8.2 118.79-7.95 118.99-7.7 119.19-7.95L119.19-7.95Q120.09-9.05 121.49-10.75 122.89-12.45 124.29-14.35 125.69-16.25 126.81-18.2 127.94-20.15 128.24-21.8ZM124.89-4.85L124.89-4.85Q124.14-3.8 123.44-2.9 122.74-2 121.89-1.33 121.04-0.65 119.99-0.25 118.94 0.15 117.59 0.2L117.59 0.2Q115.34 0.3 114.16-0.95 112.99-2.2 112.54-4 112.09-5.8 112.21-7.73 112.34-9.65 112.74-10.9L112.74-10.9Q113.29-12.65 114.06-14.23 114.84-15.8 115.71-17.07 116.59-18.35 117.51-19.28 118.44-20.2 119.34-20.7L119.34-20.7Q119.39-20.7 119.56-20.8 119.74-20.9 119.74-20.75L119.74-20.75Q119.79-20.75 119.69-20.6 119.59-20.45 119.49-20.35L119.49-20.35Q116.89-17.65 115.36-14.25 113.84-10.85 113.64-7.25L113.64-7.25Q113.59-6.35 113.71-5.3 113.84-4.25 114.21-3.33 114.59-2.4 115.29-1.78 115.99-1.15 117.19-1.15L117.19-1.15Q118.14-1.15 118.94-1.48 119.74-1.8 120.44-2.33 121.14-2.85 121.71-3.48 122.29-4.1 122.74-4.65L122.74-4.65Q123.74-5.9 124.59-7.25L124.59-7.25Q124.59-8.25 124.71-9.2 124.84-10.15 125.09-11.1L125.09-11.1Q125.24-11.8 125.36-12.23 125.49-12.65 125.61-13.03 125.74-13.4 125.86-13.83 125.99-14.25 126.24-14.95L126.24-14.95Q125.44-13.55 124.66-12.33 123.89-11.1 123.01-9.98 122.14-8.85 121.21-7.78 120.29-6.7 119.19-5.6L119.19-5.6Q118.34-4.75 117.79-5.05 117.24-5.35 117.14-6.45L117.14-6.45Q117.04-8.15 117.31-9.75 117.59-11.35 118.29-13.1L118.29-13.1Q118.94-14.7 119.91-16.2 120.89-17.7 122.16-18.93 123.44-20.15 124.99-21.03 126.54-21.9 128.29-22.2L128.29-22.2Q128.39-22.75 128.46-23.15 128.54-23.55 128.59-23.95L128.59-23.95Q128.69-24.5 128.69-24.5L128.69-24.5Q128.79-24.55 128.91-24.4 129.04-24.25 129.14-24L129.14-24Q129.74-22.35 129.54-20.7 129.34-19.05 128.81-17.35 128.29-15.65 127.59-13.88 126.89-12.1 126.44-10.3L126.44-10.3Q125.84-7.75 126.11-5.03 126.39-2.3 128.24-0.1L128.24-0.1Q128.39 0.1 128.39 0.1L128.39 0.1Q128.34 0.15 128.09 0L128.09 0Q126.64-0.9 125.91-2.18 125.19-3.45 124.89-4.85ZM126.64-22.55L126.64-22.55Q126.74-22.45 126.61-22.4 126.49-22.35 126.09-22.25L126.09-22.25Q125.44-22.05 124.51-21.5 123.59-20.95 122.56-20.1 121.54-19.25 120.54-18.13 119.54-17 118.79-15.7L118.79-15.7Q118.04-14.35 117.51-13.05 116.99-11.75 116.66-10.68 116.34-9.6 116.19-8.83 116.04-8.05 116.04-7.75L116.04-7.75Q116.04-7 116.04-6.18 116.04-5.35 116.24-4.7 116.44-4.05 116.94-3.7 117.44-3.35 118.44-3.5L118.44-3.5Q118.49-3.5 118.69-3.58 118.89-3.65 119.09-3.73 119.29-3.8 119.46-3.85 119.64-3.9 119.69-3.9L119.69-3.9Q119.74-3.8 119.61-3.65 119.49-3.5 119.29-3.33 119.09-3.15 118.91-3 118.74-2.85 118.69-2.8L118.69-2.8Q117.44-2.05 116.59-2.35 115.74-2.65 115.26-3.48 114.79-4.3 114.61-5.43 114.44-6.55 114.49-7.45L114.49-7.45Q114.59-9.2 115.04-10.93 115.49-12.65 116.19-14.4L116.19-14.4Q116.74-15.75 117.84-17.18 118.94-18.6 120.31-19.8 121.69-21 123.19-21.78 124.69-22.55 126.09-22.6L126.09-22.6Q126.59-22.6 126.64-22.55ZM129.59-0.1L129.59-0.1Q129.69 0.05 129.64 0.1L129.64 0.1Q129.49 0.1 129.24 0L129.24 0Q129.09-0.1 128.44-0.6 127.79-1.1 127.49-2.2L127.49-2.2Q127.39-2.6 127.31-3.23 127.24-3.85 127.24-4.4 127.24-4.95 127.31-5.35 127.39-5.75 127.54-5.75L127.54-5.75Q127.69-5.75 127.86-5.15 128.04-4.55 128.09-4.4L128.09-4.4Q128.24-3.7 128.36-3.18 128.49-2.65 128.64-2.2L128.64-2.2Q128.84-1.65 129.16-0.95 129.49-0.25 129.59-0.1ZM148.64-15.75L148.64-15.75Q147.79-14 146.64-12.23 145.49-10.45 144.24-9.05L144.24-9.05Q144.19-8.95 143.99-8.72 143.79-8.5 143.64-8.55L143.64-8.55Q143.54-8.65 143.59-8.9 143.64-9.15 143.69-9.3L143.69-9.3Q143.94-10.1 144.44-11.4 144.94-12.7 145.49-13.5L145.49-13.5Q145.64-13.75 146.11-14.9 146.59-16.05 147.04-17.48 147.49-18.9 147.74-20.25 147.99-21.6 147.69-22.25L147.69-22.25Q147.69-22.25 147.69-22.4L147.69-22.4 147.69-22.45Q147.89-22.45 147.99-22.25L147.99-22.25Q148.54-21.6 148.81-20.75 149.09-19.9 149.14-19 149.19-18.1 149.06-17.23 148.94-16.35 148.64-15.75ZM150.29-18.85L150.29-18.85Q150.84-17.8 150.61-16.32 150.39-14.85 149.81-13.3 149.24-11.75 148.51-10.38 147.79-9 147.34-8.15L147.34-8.15Q146.59-6.7 145.51-5.23 144.44-3.75 143.54-2.6L143.54-2.6Q143.29-2.25 143.09-2.25L143.09-2.25Q142.99-2.35 143.01-2.5 143.04-2.65 143.09-2.8L143.09-2.8Q143.89-5.4 145.09-7.63 146.29-9.85 147.59-12.25L147.59-12.25Q148.44-13.75 149.11-15.33 149.79-16.9 150.04-18.8L150.04-18.8Q150.04-19.05 150.09-19.05L150.09-19.05Q150.24-19.05 150.29-18.85ZM139.64-17.2L139.64-17.2Q139.64-15.35 139.36-13.2 139.09-11.05 138.79-9.5L138.79-9.5Q138.79-9.4 138.71-9.15 138.64-8.9 138.44-8.85L138.44-8.85Q138.34-8.85 138.26-9.1 138.19-9.35 138.14-9.45L138.14-9.45Q138.04-9.85 137.96-10.43 137.89-11 137.84-11.6 137.79-12.2 137.76-12.8 137.74-13.4 137.79-13.85L137.79-13.85Q137.84-14.15 137.74-15.35 137.64-16.55 137.44-17.95 137.24-19.35 136.89-20.63 136.54-21.9 136.04-22.4L136.04-22.4Q135.94-22.5 135.91-22.63 135.89-22.75 135.94-22.75L135.94-22.75Q136.04-22.75 136.16-22.7 136.29-22.65 136.39-22.6L136.39-22.6Q137.09-22.3 137.69-21.65 138.29-21 138.71-20.23 139.14-19.45 139.39-18.65 139.64-17.85 139.64-17.2ZM142.44 0L142.44 0Q142.44 0.2 142.34 0.2L142.34 0.2Q142.29 0.2 142.16 0.13 142.04 0.05 141.94 0L141.94 0Q141.54-0.3 141.36-0.85 141.19-1.4 141.29-2.5L141.29-2.5Q141.29-2.95 141.39-3.5 141.49-4.05 141.64-4.53 141.79-5 141.94-5.28 142.09-5.55 142.24-5.5L142.24-5.5Q142.49-5.4 142.46-4.88 142.44-4.35 142.44-4.1L142.44-4.1Q142.39-2.8 142.39-1.75 142.39-0.7 142.44 0ZM139.59-2.55L139.59-2.55Q139.34-2.85 139.14-3.35 138.94-3.85 138.79-4.33 138.64-4.8 138.61-5.15 138.59-5.5 138.74-5.55L138.74-5.55Q138.99-5.6 139.21-5.28 139.44-4.95 139.59-4.65L139.59-4.65Q139.54-5.7 139.71-6.78 139.89-7.85 139.99-8.75L139.99-8.75Q140.14-10.05 140.24-11.08 140.34-12.1 140.39-13.55L140.39-13.55Q140.49-15.1 140.39-16.95 140.29-18.8 139.59-20.55L139.59-20.55Q139.54-20.7 139.64-20.7L139.64-20.7Q139.74-20.7 139.79-20.65 139.84-20.6 139.94-20.55L139.94-20.55Q140.59-20.05 141.01-19.18 141.44-18.3 141.66-17.23 141.89-16.15 141.96-14.98 142.04-13.8 142.04-12.75L142.04-12.75Q142.79-14.1 143.59-15.43 144.39-16.75 144.99-18.07 145.59-19.4 145.94-20.68 146.29-21.95 146.24-23.2L146.24-23.2Q146.24-23.4 146.29-23.45L146.29-23.45Q146.34-23.45 146.49-23.2L146.49-23.2Q147.19-21.55 146.94-19.88 146.69-18.2 145.91-16.53 145.14-14.85 144.09-13.18 143.04-11.5 142.24-9.85L142.24-9.85Q141.24-7.75 140.81-5.25 140.39-2.75 141.09 0L141.09 0 141.09 0.05Q141.04 0.1 141.04 0.1L141.04 0.1Q140.94 0.1 140.89 0.05L140.89 0.05Q140.84 0.05 140.84 0L140.84 0Q140.69-0.2 140.49-0.4 140.29-0.6 139.94-0.8L139.94-0.8Q138.49-1.55 137.54-2.55 136.59-3.55 136.06-4.7 135.54-5.85 135.31-7.1 135.09-8.35 135.09-9.6L135.09-9.6Q135.04-11.4 135.16-13.23 135.29-15.05 135.31-16.75 135.34-18.45 135.14-20.03 134.94-21.6 134.29-22.9L134.29-22.9Q134.29-23 134.29-23L134.29-23Q134.39-23.1 134.49-23.05 134.59-23 134.64-22.95L134.64-22.95Q135.94-21.75 136.39-20.15 136.84-18.55 136.89-16.75 136.94-14.95 136.74-13.05 136.54-11.15 136.59-9.3L136.59-9.3Q136.64-8.2 136.84-7.05 137.04-5.9 137.49-4.83 137.94-3.75 138.66-2.75 139.39-1.75 140.39-0.95L140.39-0.95Q140.19-1.45 140.09-1.68 139.99-1.9 139.59-2.55ZM165.58-20.4L165.58-20.4Q165.98-19.9 166.21-19.15 166.43-18.4 166.38-17.53 166.33-16.65 165.98-15.7 165.63-14.75 164.88-13.85L164.88-13.85Q163.43-12.15 161.71-11.23 159.98-10.3 158.58-10.3L158.58-10.3Q157.73-10.3 158.58-10.6L158.58-10.6Q159.03-10.75 159.66-11.08 160.28-11.4 160.98-11.88 161.68-12.35 162.41-13 163.13-13.65 163.73-14.5L163.73-14.5Q164.73-15.9 164.91-17.23 165.08-18.55 164.38-19.25L164.38-19.25Q163.78-19.85 162.98-19.93 162.18-20 160.58-19.05L160.58-19.05Q159.13-18.2 157.98-16.95 156.83-15.7 155.83-14.3L155.83-14.3Q155.28-13.6 155.11-13.6 154.93-13.6 155.23-14.5L155.23-14.5Q155.83-16.25 156.91-17.75 157.98-19.25 159.48-20.3L159.48-20.3Q160.58-21.05 161.51-21.35 162.43-21.65 163.21-21.6 163.98-21.55 164.58-21.23 165.18-20.9 165.58-20.4ZM168.28-16.9L168.28-16.9Q168.08-15.7 167.66-14.88 167.23-14.05 166.71-13.48 166.18-12.9 165.66-12.55 165.13-12.2 164.73-11.9L164.73-11.9Q164.53-11.75 164.43-11.85 164.33-11.95 164.58-12.2L164.58-12.2Q165.48-12.95 166.41-14.23 167.33-15.5 167.38-17.05L167.38-17.05Q167.38-19.7 166.08-21.1L166.08-21.1Q164.78-22.5 162.83-22.33 160.88-22.15 158.78-20.8L158.78-20.8Q157.43-19.95 156.41-18.82 155.38-17.7 154.63-16.43 153.88-15.15 153.41-13.8 152.93-12.45 152.73-11.1L152.73-11.1Q152.53-9.8 152.36-8.3 152.18-6.8 152.36-5.35 152.53-3.9 153.28-2.58 154.03-1.25 155.63-0.3L155.63-0.3Q155.88-0.15 156.16-0.1 156.43-0.05 156.43 0L156.43 0Q156.43 0.1 156.18 0.13 155.93 0.15 155.63 0.05L155.63 0.05Q154.38-0.2 153.51-0.98 152.63-1.75 152.08-2.75 151.53-3.75 151.23-4.85 150.93-5.95 150.88-6.85L150.88-6.85Q150.58-10.8 151.98-14.65L151.98-14.65Q152.28-15.45 152.76-16.45 153.23-17.45 153.93-18.48 154.63-19.5 155.58-20.48 156.53-21.45 157.73-22.2L157.73-22.2Q158.88-22.9 160.13-23.25 161.38-23.6 162.63-23.58 163.88-23.55 164.98-23.13 166.08-22.7 166.93-21.85L166.93-21.85Q167.68-21.05 168.11-19.8 168.53-18.55 168.28-16.9ZM163.73-18.7L163.73-18.7Q164.33-18 163.88-16.53 163.43-15.05 161.78-13.55L161.78-13.55Q160.88-12.7 160.03-12.18 159.18-11.65 157.88-11.25L157.88-11.25Q157.33-9.35 157.18-7.5 157.03-5.65 157.28-4.5L157.28-4.5Q157.33-4.05 157.61-3.63 157.88-3.2 158.41-2.98 158.93-2.75 159.78-2.8 160.63-2.85 161.88-3.35L161.88-3.35Q162.23-3.5 162.31-3.43 162.38-3.35 161.98-3.1L161.98-3.1Q161.08-2.4 160.08-2.13 159.08-1.85 158.21-1.95 157.33-2.05 156.71-2.55 156.08-3.05 155.88-3.9L155.88-3.9Q155.48-5.65 155.53-7.55 155.58-9.45 156.11-11.3 156.63-13.15 157.61-14.78 158.58-16.4 160.03-17.55L160.03-17.55Q162.73-19.7 163.73-18.7ZM163.23-2.75L163.23-2.75Q162.88-2.25 162.36-1.78 161.83-1.3 161.16-0.93 160.48-0.55 159.76-0.3 159.03-0.05 158.28-0.05L158.28-0.05Q156.98-0.05 155.86-0.63 154.73-1.2 154.13-2.95L154.13-2.95Q154.03-3.15 154.03-3.33 154.03-3.5 154.13-3.5L154.13-3.5Q154.33-3.6 154.53-3.38 154.73-3.15 154.93-2.9L154.93-2.9Q155.48-2.25 156.36-1.75 157.23-1.25 158.03-1.25L158.03-1.25Q159.53-1.25 160.63-1.7 161.73-2.15 162.73-2.9L162.73-2.9Q162.98-3.05 163.31-3.2 163.63-3.35 163.23-2.75ZM162.53-17.35L162.53-17.35Q162.33-17.75 161.08-16.7L161.08-16.7Q159.93-15.8 159.26-14.63 158.58-13.45 158.08-12.05L158.08-12.05Q159.03-12.5 159.83-13.08 160.63-13.65 161.33-14.2L161.33-14.2Q162.08-14.85 162.43-15.9 162.78-16.95 162.53-17.35Z" opacity="1" transform="matrix(1,0,0,1,0,0)" fill="white" class="wordmark-text-0" id="SvgjsPath1926"></path></svg></g></svg></g></svg></g></svg></g><g></g></svg></g><defs><mask></mask></defs></svg><rect width="395.52" height="117.92710013374699" fill="black" stroke="none" visibility="hidden"></rect></g></mask><linearGradient x1="0" x2="1" y1="0.5" y2="0.5" id="093da561-599c-4e16-a4f3-d4c24c724821"><stop stop-color="#fff72e" offset="0"></stop><stop stop-color="#deae29" offset="1"></stop></linearGradient><rect width="395.52033723461733" height="117.9272451169639" fill="#ffffff" mask="url(#bc9941e1-3fe6-4fc8-abef-19898e785d3b)" data-fill-palette-color="quaternary"></rect></svg><rect width="395.52" height="117.92710013374699" fill="none" stroke="none" visibility="hidden"></rect></g></svg></g></svg>